<svg width="54" height="9" viewBox="0 0 54 9" fill="none" xmlns="http://www.w3.org/2000/svg">
<path d="M8.00004 6C4.5 5 0.816791 2.01711 1.00004 2C1.58328 1.94553 7.50006 3.49982 7.50006 3.49982C10.0001 3.99982 10.5001 4.49982 16.0001 5C21.5001 5.50019 20.909 5.41249 26.0001 5.5C30.8848 5.58397 33.158 5.14884 38.0001 4.50011C44.1961 3.66999 49.5001 2.27272 53.0001 0.999998C53.5804 0.788983 49.5001 3.99982 48.0001 4.50011C46.5002 5.00036 45.0001 5.73398 38.5001 7C35.0001 7.6817 31.5001 8 25.0001 8C18.5001 8 14.4142 7.8326 8.00004 6Z" stroke="#0078E7"/>
</svg>
